<!DOCTYPE svg PUBLIC "-//W3C//DTD SVG 20010904//EN" "http://www.w3.org/TR/2001/REC-SVG-20010904/DTD/svg10.dtd">
<svg version="1.0" xmlns="http://www.w3.org/2000/svg" width="440px" height="374px" viewBox="0 0 4400 3740" preserveAspectRatio="xMidYMid meet">
<g id="layer101" fill="#e22727" stroke="none">
 <path d="M1665 3275 c-323 -52 -599 -197 -829 -435 -112 -116 -192 -229 -261 -368 -50 -100 -105 -258 -105 -301 0 -26 3 -28 73 -39 59 -10 83 -10 120 0 45 12 46 12 73 87 69 191 152 320 304 471 134 134 245 207 408 271 241 94 491 109 745 45 447 -114 806 -495 891 -946 9 -45 16 -88 16 -96 0 -12 -59 -14 -357 -14 -197 0 -376 -5 -397 -10 -22 -5 -50 -19 -62 -32 -25 -25 -73 -172 -67 -207 1 -12 -2 -21 -7 -21 -6 0 -10 10 -10 23 0 20 -138 547 -186 710 -23 77 -58 107 -123 107 -60 0 -94 -24 -115 -83 -8 -23 -56 -196 -107 -384 -51 -189 -95 -343 -98 -343 -4 0 -17 39 -30 86 -29 104 -51 133 -111 145 -54 10 -449 11 -769 2 l-233 -6 5 -171 c4 -119 11 -197 25 -257 68 -289 187 -504 397 -715 272 -273 592 -415 972 -431 164 -7 273 5 439 47 552 142 975 609 1069 1180 10 58 23 108 29 112 6 4 127 8 269 8 l257 0 42 -27 c35 -24 52 -28 108 -28 54 0 73 5 103 25 108 74 104 254 -8 317 -70 40 -189 24 -234 -31 -12 -14 -50 -16 -281 -16 l-267 0 -17 108 c-98 601 -549 1073 -1151 1204 -122 26 -395 33 -520 13z m239 -1372 c4 -16 48 -181 98 -368 84 -312 95 -343 124 -372 26 -27 40 -33 73 -33 53 0 97 22 114 58 8 15 42 133 77 262 35 129 67 241 73 248 7 9 84 12 323 12 292 0 314 -1 314 -17 0 -93 -68 -315 -131 -433 -122 -225 -304 -404 -527 -518 -188 -96 -339 -132 -552 -132 -212 0 -366 37 -554 133 -223 114 -421 311 -531 528 -67 133 -138 380 -121 424 5 13 51 15 308 15 167 0 309 -4 316 -8 7 -5 43 -123 81 -262 63 -231 72 -257 100 -282 25 -22 41 -28 77 -28 62 0 98 21 117 68 14 36 148 519 185 670 17 68 26 77 36 35z"/>
 </g>

</svg>